<svg width="126" height="49" viewBox="0 0 126 49" fill="none" xmlns="http://www.w3.org/2000/svg">
<path d="M30.38 10.6C30.38 12.5833 29.68 14.2983 28.28 15.745C26.88 17.1683 24.8383 18.195 22.155 18.825C23.6017 19.2217 24.6983 19.875 25.445 20.785C26.1917 21.6717 26.565 22.6983 26.565 23.865C26.565 25.7083 25.9817 27.3067 24.815 28.66C23.6717 30.0133 21.9917 31.0633 19.775 31.81C17.5583 32.5333 14.8867 32.895 11.76 32.895C10.5933 32.895 9.66 32.86 8.96 32.79C8.93667 33.4433 8.65667 33.9333 8.12 34.26C7.58333 34.5867 6.895 34.75 6.055 34.75C5.215 34.75 4.63167 34.5633 4.305 34.19C4.00167 33.8167 3.87333 33.2683 3.92 32.545C4.13 29.2783 4.53833 25.86 5.145 22.29C5.75167 18.6967 6.52167 15.2317 7.455 11.895C7.61833 11.3117 7.945 10.9033 8.435 10.67C8.925 10.4367 9.56667 10.32 10.36 10.32C11.7833 10.32 12.495 10.7167 12.495 11.51C12.495 11.8367 12.425 12.21 12.285 12.63C11.6783 14.45 11.0717 16.9233 10.465 20.05C9.85833 23.1533 9.42667 26.1167 9.17 28.94C10.29 29.0333 11.2 29.08 11.9 29.08C15.1667 29.08 17.5583 28.6133 19.075 27.68C20.615 26.7233 21.385 25.51 21.385 24.04C21.385 23.0133 20.9417 22.15 20.055 21.45C19.1917 20.75 17.7333 20.365 15.68 20.295C15.2133 20.2717 14.8867 20.155 14.7 19.945C14.5133 19.735 14.42 19.3967 14.42 18.93C14.42 18.2533 14.56 17.705 14.84 17.285C15.12 16.865 15.6333 16.6433 16.38 16.62C18.0367 16.5733 19.53 16.3283 20.86 15.885C22.2133 15.4417 23.275 14.8233 24.045 14.03C24.815 13.2133 25.2 12.2683 25.2 11.195C25.2 9.84167 24.535 8.78 23.205 8.01C21.875 7.21667 19.8333 6.82 17.08 6.82C14.5833 6.82 12.1683 7.14667 9.835 7.8C7.50167 8.43 5.51833 9.235 3.885 10.215C3.13833 10.6583 2.50833 10.88 1.995 10.88C1.575 10.88 1.24833 10.74 1.015 10.46C0.805 10.1567 0.7 9.78333 0.7 9.34C0.7 8.75667 0.816667 8.255 1.05 7.835C1.30667 7.415 1.90167 6.93666 2.835 6.4C4.795 5.28 7.09333 4.405 9.73 3.775C12.3667 3.145 15.0617 2.83 17.815 2.83C22.0383 2.83 25.1883 3.54166 27.265 4.965C29.3417 6.38833 30.38 8.26667 30.38 10.6ZM43.8952 25.195C44.1985 25.195 44.4319 25.335 44.5952 25.615C44.7819 25.895 44.8752 26.28 44.8752 26.77C44.8752 27.7033 44.6535 28.4267 44.2102 28.94C43.2069 30.1767 42.1102 31.1917 40.9202 31.985C39.7535 32.7783 38.4235 33.175 36.9302 33.175C34.8769 33.175 33.3485 32.2417 32.3452 30.375C31.3652 28.5083 30.8752 26.0933 30.8752 23.13C30.8752 20.2833 31.2369 17.04 31.9602 13.4C32.7069 9.76 33.7919 6.63333 35.2152 4.02C36.6619 1.40666 38.3769 0.099998 40.3602 0.099998C41.4802 0.099998 42.3552 0.624998 42.9852 1.675C43.6385 2.70167 43.9652 4.18333 43.9652 6.12C43.9652 8.89667 43.1952 12.1167 41.6552 15.78C40.1152 19.4433 38.0269 23.0717 35.3902 26.665C35.5535 27.6217 35.8219 28.31 36.1952 28.73C36.5685 29.1267 37.0585 29.325 37.6652 29.325C38.6219 29.325 39.4619 29.0567 40.1852 28.52C40.9085 27.96 41.8302 27.015 42.9502 25.685C43.2302 25.3583 43.5452 25.195 43.8952 25.195ZM39.5902 3.565C39.0535 3.565 38.4469 4.53333 37.7702 6.47C37.0935 8.40667 36.4985 10.81 35.9852 13.68C35.4719 16.55 35.1919 19.3033 35.1452 21.94C36.8019 19.21 38.1202 16.48 39.1002 13.75C40.0802 10.9967 40.5702 8.48833 40.5702 6.225C40.5702 4.45167 40.2435 3.565 39.5902 3.565ZM57.6562 25.195C57.9595 25.195 58.1929 25.335 58.3562 25.615C58.5429 25.895 58.6362 26.28 58.6362 26.77C58.6362 27.7033 58.4145 28.4267 57.9712 28.94C57.1079 29.99 55.8829 30.9583 54.2962 31.845C52.7329 32.7317 51.0529 33.175 49.2562 33.175C46.8062 33.175 44.9045 32.51 43.5512 31.18C42.1979 29.85 41.5212 28.03 41.5212 25.72C41.5212 24.11 41.8595 22.6167 42.5362 21.24C43.2129 19.84 44.1462 18.7317 45.3362 17.915C46.5495 17.0983 47.9145 16.69 49.4312 16.69C50.7845 16.69 51.8695 17.0983 52.6862 17.915C53.5029 18.7083 53.9112 19.7933 53.9112 21.17C53.9112 22.78 53.3279 24.1683 52.1612 25.335C51.0179 26.4783 49.0695 27.3883 46.3162 28.065C46.8995 29.1383 48.0079 29.675 49.6412 29.675C50.6912 29.675 51.8812 29.3133 53.2112 28.59C54.5645 27.8433 55.7312 26.875 56.7112 25.685C56.9912 25.3583 57.3062 25.195 57.6562 25.195ZM48.8362 20.12C47.9729 20.12 47.2379 20.6217 46.6312 21.625C46.0479 22.6283 45.7562 23.8417 45.7562 25.265V25.335C47.1329 25.0083 48.2179 24.5183 49.0112 23.865C49.8045 23.2117 50.2012 22.4533 50.2012 21.59C50.2012 21.1467 50.0729 20.7967 49.8162 20.54C49.5829 20.26 49.2562 20.12 48.8362 20.12ZM58.2714 33.175C57.3848 33.175 56.7548 32.7083 56.3814 31.775C56.0314 30.8417 55.8564 29.3483 55.8564 27.295C55.8564 24.2617 56.2881 21.38 57.1514 18.65C57.3614 17.9733 57.6998 17.4833 58.1664 17.18C58.6564 16.8533 59.3331 16.69 60.1964 16.69C60.6631 16.69 60.9898 16.7483 61.1764 16.865C61.3631 16.9817 61.4564 17.2033 61.4564 17.53C61.4564 17.9033 61.2814 18.7433 60.9314 20.05C60.6981 20.9833 60.5114 21.8 60.3714 22.5C60.2314 23.2 60.1148 24.0633 60.0214 25.09C60.7914 23.0833 61.6548 21.45 62.6114 20.19C63.5681 18.93 64.5014 18.0317 65.4114 17.495C66.3448 16.9583 67.1964 16.69 67.9664 16.69C69.4831 16.69 70.2414 17.4483 70.2414 18.965C70.2414 19.875 69.9848 21.52 69.4714 23.9C69.0281 25.93 68.8064 27.2717 68.8064 27.925C68.8064 28.8583 69.1448 29.325 69.8214 29.325C70.2881 29.325 70.8364 29.045 71.4664 28.485C72.1198 27.9017 72.9831 26.9683 74.0564 25.685C74.3364 25.3583 74.6514 25.195 75.0014 25.195C75.3048 25.195 75.5381 25.335 75.7014 25.615C75.8881 25.895 75.9814 26.28 75.9814 26.77C75.9814 27.7033 75.7598 28.4267 75.3164 28.94C74.3131 30.1767 73.2281 31.1917 72.0614 31.985C70.9181 32.7783 69.6114 33.175 68.1414 33.175C66.9514 33.175 66.0531 32.8367 65.4464 32.16C64.8398 31.46 64.5364 30.4567 64.5364 29.15C64.5364 28.4967 64.6998 27.33 65.0264 25.65C65.3298 24.18 65.4814 23.165 65.4814 22.605C65.4814 22.2317 65.3531 22.045 65.0964 22.045C64.7931 22.045 64.3614 22.4417 63.8014 23.235C63.2648 24.005 62.7048 25.0317 62.1214 26.315C61.5614 27.5983 61.1064 28.9517 60.7564 30.375C60.4998 31.4717 60.1964 32.2183 59.8464 32.615C59.5198 32.9883 58.9948 33.175 58.2714 33.175ZM93.0297 25.195C93.3331 25.195 93.5664 25.335 93.7297 25.615C93.9164 25.895 94.0097 26.28 94.0097 26.77C94.0097 27.7033 93.7881 28.4267 93.3447 28.94C92.3881 30.1067 91.3381 31.11 90.1947 31.95C89.0514 32.7667 87.9197 33.175 86.7997 33.175C85.0264 33.175 83.6731 32.1367 82.7397 30.06C81.7597 31.2967 80.8964 32.125 80.1497 32.545C79.4264 32.965 78.5747 33.175 77.5947 33.175C76.1714 33.175 74.9931 32.65 74.0597 31.6C73.1497 30.5267 72.6947 29.1383 72.6947 27.435C72.6947 25.5683 73.0914 23.8417 73.8847 22.255C74.6781 20.645 75.7631 19.3383 77.1397 18.335C78.5397 17.3083 80.1031 16.7017 81.8297 16.515C82.2731 11.9883 83.1131 8.12667 84.3497 4.93C85.6097 1.71 87.2547 0.099998 89.2847 0.099998C90.2881 0.099998 91.1164 0.554998 91.7697 1.465C92.4464 2.375 92.7847 3.75166 92.7847 5.595C92.7847 8.20833 92.1431 11.265 90.8597 14.765C89.5764 18.265 87.8614 21.8583 85.7147 25.545C85.8081 26.8983 86.0064 27.8667 86.3097 28.45C86.6364 29.0333 87.0447 29.325 87.5347 29.325C88.1647 29.325 88.8064 29.045 89.4597 28.485C90.1131 27.925 90.9881 26.9917 92.0847 25.685C92.3647 25.3583 92.6797 25.195 93.0297 25.195ZM88.8997 3.53C88.4564 3.53 88.0131 4.32333 87.5697 5.91C87.1264 7.47333 86.7414 9.52667 86.4147 12.07C86.1114 14.6133 85.8897 17.2733 85.7497 20.05C88.3631 14.3567 89.6697 9.78333 89.6697 6.33C89.6697 5.44333 89.5881 4.755 89.4247 4.265C89.2847 3.775 89.1097 3.53 88.8997 3.53ZM78.8197 29.64C79.2631 29.64 79.7064 29.465 80.1497 29.115C80.5931 28.7417 81.1531 28.065 81.8297 27.085C81.5964 25.825 81.4797 24.4133 81.4797 22.85C81.4797 22.29 81.5031 21.38 81.5497 20.12C80.2664 20.5167 79.1931 21.38 78.3297 22.71C77.4897 24.0167 77.0697 25.475 77.0697 27.085C77.0697 28.7883 77.6531 29.64 78.8197 29.64ZM95.7474 14.38C94.7674 14.38 94.0324 14.1583 93.5424 13.715C93.0524 13.2483 92.8074 12.6067 92.8074 11.79C92.8074 10.9733 93.1224 10.2967 93.7524 9.76C94.4058 9.2 95.2108 8.92 96.1674 8.92C97.0308 8.92 97.7308 9.13 98.2674 9.55C98.8041 9.97 99.0724 10.565 99.0724 11.335C99.0724 12.2683 98.7691 13.015 98.1624 13.575C97.5558 14.1117 96.7508 14.38 95.7474 14.38ZM95.4674 33.175C93.9508 33.175 92.8424 32.6383 92.1424 31.565C91.4658 30.4917 91.1274 29.0683 91.1274 27.295C91.1274 26.245 91.2558 24.9033 91.5124 23.27C91.7924 21.6133 92.1424 20.0733 92.5624 18.65C92.7724 17.9033 93.0524 17.39 93.4024 17.11C93.7524 16.83 94.3124 16.69 95.0824 16.69C96.2724 16.69 96.8674 17.0867 96.8674 17.88C96.8674 18.4633 96.6458 19.8167 96.2024 21.94C95.6424 24.5067 95.3624 26.245 95.3624 27.155C95.3624 27.855 95.4558 28.3917 95.6424 28.765C95.8291 29.1383 96.1441 29.325 96.5874 29.325C97.0074 29.325 97.5324 29.0333 98.1624 28.45C98.7924 27.8667 99.6324 26.945 100.682 25.685C100.962 25.3583 101.277 25.195 101.627 25.195C101.931 25.195 102.164 25.335 102.327 25.615C102.514 25.895 102.607 26.28 102.607 26.77C102.607 27.7033 102.386 28.4267 101.942 28.94C99.6324 31.7633 97.4741 33.175 95.4674 33.175ZM113.399 23.2C114.052 23.2 114.379 23.69 114.379 24.67C114.379 26.5133 112.932 27.435 110.039 27.435C109.479 27.435 108.674 27.33 107.624 27.12C107.927 28.5667 108.172 30.1767 108.359 31.95C108.569 33.7 108.674 35.1467 108.674 36.29C108.674 38.81 108.266 40.735 107.449 42.065C106.632 43.395 105.559 44.06 104.229 44.06C102.549 44.06 101.347 42.87 100.624 40.49C99.9239 38.11 99.5739 34.5167 99.5739 29.71C99.5739 25.23 100.052 20.6917 101.009 16.095C101.989 11.475 103.319 7.66 104.999 4.65C106.702 1.61666 108.569 0.099998 110.599 0.099998C111.696 0.099998 112.547 0.589998 113.154 1.57C113.784 2.55 114.099 3.86833 114.099 5.525C114.099 11.0083 110.821 16.9817 104.264 23.445C104.031 25.7317 103.914 27.7383 103.914 29.465C103.914 31.8683 103.996 34.33 104.159 36.85C104.322 39.3933 104.591 40.665 104.964 40.665C105.664 40.665 106.014 39.4517 106.014 37.025C106.014 35.205 105.886 33.4433 105.629 31.74C105.396 30.0367 105.069 28.24 104.649 26.35C104.626 26.0467 104.719 25.6617 104.929 25.195C105.162 24.7283 105.442 24.32 105.769 23.97C106.096 23.62 106.387 23.445 106.644 23.445C107.111 23.445 107.671 23.4683 108.324 23.515C108.534 23.5383 108.779 23.55 109.059 23.55C109.992 23.55 111.031 23.4683 112.174 23.305C112.361 23.2817 112.559 23.2583 112.769 23.235C112.979 23.2117 113.189 23.2 113.399 23.2ZM109.864 3.565C109.444 3.565 108.919 4.27667 108.289 5.7C107.682 7.12333 107.076 9.01333 106.469 11.37C105.862 13.7033 105.337 16.1767 104.894 18.79C106.761 16.6667 108.196 14.4617 109.199 12.175C110.202 9.865 110.716 7.70667 110.739 5.7C110.739 4.27667 110.447 3.565 109.864 3.565ZM123.989 16.69C124.525 16.69 124.899 16.76 125.109 16.9C125.319 17.04 125.424 17.2733 125.424 17.6C125.424 18.16 125.12 20.155 124.514 23.585C123.977 26.875 123.662 28.8233 123.569 29.43C122.705 35.4267 121.515 40.175 119.999 43.675C118.482 47.175 116.464 48.925 113.944 48.925C112.754 48.925 111.785 48.5517 111.039 47.805C110.292 47.0817 109.919 46.125 109.919 44.935C109.919 43.8383 110.164 42.7183 110.654 41.575C111.167 40.4317 112.1 39.1133 113.454 37.62C114.83 36.15 116.767 34.4583 119.264 32.545L119.369 31.74C119.532 30.8767 119.719 29.64 119.929 28.03C119.462 29.71 118.809 30.9933 117.969 31.88C117.129 32.7433 116.242 33.175 115.309 33.175C114.259 33.175 113.395 32.6967 112.719 31.74C112.065 30.76 111.739 29.5467 111.739 28.1C111.739 26.35 111.855 24.7517 112.089 23.305C112.322 21.835 112.707 20.2833 113.244 18.65C113.477 17.95 113.804 17.4483 114.224 17.145C114.644 16.8417 115.309 16.69 116.219 16.69C116.732 16.69 117.082 16.7717 117.269 16.935C117.479 17.0983 117.584 17.3433 117.584 17.67C117.584 17.8567 117.455 18.4867 117.199 19.56C116.965 20.4233 116.779 21.205 116.639 21.905C116.452 22.8617 116.289 23.7833 116.149 24.67C116.009 25.5333 115.939 26.245 115.939 26.805C115.939 27.6917 116.184 28.135 116.674 28.135C117.024 28.135 117.455 27.785 117.969 27.085C118.505 26.385 119.065 25.3233 119.649 23.9C120.255 22.4767 120.839 20.7267 121.399 18.65C121.585 17.95 121.865 17.4483 122.239 17.145C122.635 16.8417 123.219 16.69 123.989 16.69ZM114.329 45.53C114.912 45.53 115.565 44.8533 116.289 43.5C117.012 42.1467 117.735 39.895 118.459 36.745C116.662 38.2617 115.355 39.6383 114.539 40.875C113.745 42.135 113.349 43.2317 113.349 44.165C113.349 44.5617 113.419 44.8883 113.559 45.145C113.722 45.4017 113.979 45.53 114.329 45.53Z" fill="#F3AA17"/>
</svg>