<svg width="48" height="53" viewBox="0 0 48 53" fill="none" xmlns="http://www.w3.org/2000/svg">
<path d="M47.25 38.0625C47.25 39.06 46.6988 39.9263 45.8588 40.3725L25.1213 52.0275C24.7013 52.3425 24.1763 52.5 23.625 52.5C23.0738 52.5 22.5488 52.3425 22.1288 52.0275L1.39126 40.3725C0.970419 40.1513 0.618229 39.8191 0.372952 39.4118C0.127675 39.0046 -0.00131032 38.5379 1.0036e-05 38.0625V14.4375C1.0036e-05 13.44 0.55126 12.5738 1.39126 12.1275L22.1288 0.4725C22.5488 0.1575 23.0738 0 23.625 0C24.1763 0 24.7013 0.1575 25.1213 0.4725L45.8588 12.1275C46.6988 12.5738 47.25 13.44 47.25 14.4375V38.0625ZM5.25001 18.375V34.125H8.53126V28.875H10.5C11.8924 28.875 13.2278 28.3219 14.2123 27.3373C15.1969 26.3527 15.75 25.0174 15.75 23.625C15.75 22.2326 15.1969 20.8973 14.2123 19.9127C13.2278 18.9281 11.8924 18.375 10.5 18.375H5.25001ZM8.53126 26.25V21H9.84376C10.54 21 11.2076 21.2766 11.6999 21.7688C12.1922 22.2611 12.4688 22.9288 12.4688 23.625C12.4688 24.3212 12.1922 24.9889 11.6999 25.4812C11.2076 25.9734 10.54 26.25 9.84376 26.25H8.53126ZM17.7188 18.375V34.125H21V28.875H22.9688L24.7013 34.125H28.1663L26.0925 27.8513C27.3788 26.9063 28.2188 25.3575 28.2188 23.625C28.2188 22.2326 27.6656 20.8973 26.6811 19.9127C25.6965 18.9281 24.3611 18.375 22.9688 18.375H17.7188ZM21 26.25V21H22.3125C23.0087 21 23.6764 21.2766 24.1687 21.7688C24.6609 22.2611 24.9375 22.9288 24.9375 23.625C24.9375 24.3212 24.6609 24.9889 24.1687 25.4812C23.6764 25.9734 23.0087 26.25 22.3125 26.25H21ZM36.75 18.375C33.1275 18.375 30.1875 21.8925 30.1875 26.25C30.1875 30.6075 33.1275 34.125 36.75 34.125C40.3725 34.125 43.3125 30.6075 43.3125 26.25C43.3125 21.8925 40.3725 18.375 36.75 18.375ZM36.75 21.6563C38.745 21.6563 40.3725 23.7038 40.3725 26.25C40.3725 28.7963 38.745 30.8438 36.75 30.8438C34.755 30.8438 33.1538 28.7963 33.1538 26.25C33.1538 23.7038 34.755 21.6563 36.75 21.6563Z" fill="#294199"/>
</svg>