<svg width="49" height="53" viewBox="0 0 49 53" fill="none" xmlns="http://www.w3.org/2000/svg">
<path d="M48.125 38.3125C48.125 39.31 47.5738 40.1763 46.7338 40.6225L25.9963 52.2775C25.5763 52.5925 25.0513 52.75 24.5 52.75C23.9488 52.75 23.4238 52.5925 23.0038 52.2775L2.26626 40.6225C1.84542 40.4013 1.49323 40.0691 1.24795 39.6618C1.00267 39.2546 0.87369 38.7879 0.87501 38.3125V14.6875C0.87501 13.69 1.42626 12.8238 2.26626 12.3775L23.0038 0.7225C23.4238 0.4075 23.9488 0.25 24.5 0.25C25.0513 0.25 25.5763 0.4075 25.9963 0.7225L46.7338 12.3775C47.5738 12.8238 48.125 13.69 48.125 14.6875V38.3125ZM6.12501 18.625V34.375H9.40626V29.125H11.375C12.7674 29.125 14.1028 28.5719 15.0873 27.5873C16.0719 26.6027 16.625 25.2674 16.625 23.875C16.625 22.4826 16.0719 21.1473 15.0873 20.1627C14.1028 19.1781 12.7674 18.625 11.375 18.625H6.12501ZM9.40626 26.5V21.25H10.7188C11.415 21.25 12.0826 21.5266 12.5749 22.0188C13.0672 22.5111 13.3438 23.1788 13.3438 23.875C13.3438 24.5712 13.0672 25.2389 12.5749 25.7312C12.0826 26.2234 11.415 26.5 10.7188 26.5H9.40626ZM18.5938 18.625V34.375H21.875V29.125H23.8438L25.5763 34.375H29.0413L26.9675 28.1013C28.2538 27.1563 29.0938 25.6075 29.0938 23.875C29.0938 22.4826 28.5406 21.1473 27.5561 20.1627C26.5715 19.1781 25.2361 18.625 23.8438 18.625H18.5938ZM21.875 26.5V21.25H23.1875C23.8837 21.25 24.5514 21.5266 25.0437 22.0188C25.5359 22.5111 25.8125 23.1788 25.8125 23.875C25.8125 24.5712 25.5359 25.2389 25.0437 25.7312C24.5514 26.2234 23.8837 26.5 23.1875 26.5H21.875ZM37.625 18.625C34.0025 18.625 31.0625 22.1425 31.0625 26.5C31.0625 30.8575 34.0025 34.375 37.625 34.375C41.2475 34.375 44.1875 30.8575 44.1875 26.5C44.1875 22.1425 41.2475 18.625 37.625 18.625ZM37.625 21.9063C39.62 21.9063 41.2475 23.9538 41.2475 26.5C41.2475 29.0463 39.62 31.0938 37.625 31.0938C35.63 31.0938 34.0288 29.0463 34.0288 26.5C34.0288 23.9538 35.63 21.9063 37.625 21.9063Z" fill="white"/>
</svg>