<svg width="96" height="43" viewBox="0 0 96 43" fill="none" xmlns="http://www.w3.org/2000/svg">
<path d="M28.43 22.31C28.69 22.31 28.89 22.43 29.03 22.67C29.19 22.91 29.27 23.24 29.27 23.66C29.27 24.44 29.08 25.06 28.7 25.52C27.74 26.68 26.77 27.58 25.79 28.22C24.81 28.84 23.65 29.15 22.31 29.15C21.01 29.15 19.9 28.8 18.98 28.1C18.08 27.4 17.22 26.2 16.4 24.5C15.74 23.14 15.22 22.14 14.84 21.5C14.46 20.84 14.08 20.37 13.7 20.09C13.34 19.81 12.89 19.64 12.35 19.58C12.27 20 12.04 21.32 11.66 23.54C11.5 24.54 11.4 25.15 11.36 25.37C11.16 26.59 10.76 27.53 10.16 28.19C9.56 28.83 8.65 29.15 7.43 29.15C6.09 29.15 4.9 28.76 3.86 27.98C2.84 27.18 2.05 26.08 1.49 24.68C0.93 23.26 0.65 21.65 0.65 19.85C0.65 16.49 1.23 13.59 2.39 11.15C3.57 8.71 5.21 6.85 7.31 5.57C9.43 4.27 11.87 3.62 14.63 3.62C16.55 3.62 18.16 3.91 19.46 4.49C20.76 5.07 21.72 5.87 22.34 6.89C22.98 7.91 23.3 9.06 23.3 10.34C23.3 11.46 23.03 12.56 22.49 13.64C21.97 14.7 21.18 15.64 20.12 16.46C19.06 17.28 17.77 17.89 16.25 18.29C17.21 18.55 17.95 18.97 18.47 19.55C18.99 20.13 19.51 20.98 20.03 22.1C20.59 23.3 21.14 24.18 21.68 24.74C22.24 25.3 22.88 25.58 23.6 25.58C24.24 25.58 24.85 25.37 25.43 24.95C26.01 24.51 26.74 23.77 27.62 22.73C27.86 22.45 28.13 22.31 28.43 22.31ZM8.21 19.55C7.53 19.55 7.06 19.39 6.8 19.07C6.56 18.75 6.44 18.39 6.44 17.99C6.44 17.51 6.59 17.13 6.89 16.85C7.21 16.57 7.57 16.43 7.97 16.43H8.72C9.04 14.47 9.34 12.78 9.62 11.36C9.88 10.06 10.72 9.41 12.14 9.41C13.28 9.41 13.85 9.92 13.85 10.94C13.85 11.16 13.84 11.33 13.82 11.45L12.92 16.43C14 16.37 14.98 16.11 15.86 15.65C16.76 15.19 17.47 14.55 17.99 13.73C18.53 12.91 18.8 11.98 18.8 10.94C18.8 9.68 18.37 8.69 17.51 7.97C16.65 7.25 15.39 6.89 13.73 6.89C11.77 6.89 10.05 7.38 8.57 8.36C7.11 9.32 5.97 10.76 5.15 12.68C4.33 14.58 3.92 16.9 3.92 19.64C3.92 20.92 4.05 22.02 4.31 22.94C4.57 23.86 4.89 24.55 5.27 25.01C5.65 25.47 6.01 25.7 6.35 25.7C6.61 25.7 6.82 25.57 6.98 25.31C7.16 25.05 7.3 24.63 7.4 24.05L8.21 19.55ZM41.5505 19.79C41.8105 19.79 42.0105 19.92 42.1505 20.18C42.2905 20.44 42.3605 20.77 42.3605 21.17C42.3605 22.13 42.0705 22.7 41.4905 22.88C40.2905 23.3 38.9705 23.54 37.5305 23.6C37.1505 25.28 36.4005 26.63 35.2805 27.65C34.1605 28.65 32.8905 29.15 31.4705 29.15C30.2705 29.15 29.2405 28.86 28.3805 28.28C27.5405 27.7 26.9005 26.93 26.4605 25.97C26.0205 25.01 25.8005 23.97 25.8005 22.85C25.8005 21.33 26.0905 19.98 26.6705 18.8C27.2505 17.6 28.0505 16.67 29.0705 16.01C30.0905 15.33 31.2205 14.99 32.4605 14.99C33.9805 14.99 35.2005 15.52 36.1205 16.58C37.0605 17.62 37.6105 18.91 37.7705 20.45C38.7105 20.39 39.8305 20.19 41.1305 19.85C41.2905 19.81 41.4305 19.79 41.5505 19.79ZM31.7105 25.97C32.3505 25.97 32.9005 25.71 33.3605 25.19C33.8405 24.67 34.1605 23.92 34.3205 22.94C33.7005 22.52 33.2205 21.97 32.8805 21.29C32.5605 20.61 32.4005 19.89 32.4005 19.13C32.4005 18.81 32.4305 18.49 32.4905 18.17H32.3405C31.5405 18.17 30.8705 18.56 30.3305 19.34C29.8105 20.1 29.5505 21.18 29.5505 22.58C29.5505 23.68 29.7605 24.52 30.1805 25.1C30.6205 25.68 31.1305 25.97 31.7105 25.97ZM45.5157 29.15C43.5557 29.15 42.0257 28.6 40.9257 27.5C39.8457 26.38 39.3057 24.91 39.3057 23.09C39.3057 21.47 39.6257 20.05 40.2657 18.83C40.9057 17.61 41.7357 16.67 42.7557 16.01C43.7757 15.35 44.8457 15.02 45.9657 15.02C47.0657 15.02 47.9157 15.35 48.5157 16.01C49.1357 16.65 49.4457 17.48 49.4457 18.5C49.4457 19.34 49.2557 20.05 48.8757 20.63C48.5157 21.21 48.0357 21.5 47.4357 21.5C47.0557 21.5 46.7457 21.41 46.5057 21.23C46.2857 21.05 46.1757 20.8 46.1757 20.48C46.1757 20.34 46.1957 20.18 46.2357 20C46.2757 19.82 46.3057 19.69 46.3257 19.61C46.4257 19.31 46.4757 19.03 46.4757 18.77C46.4757 18.51 46.4057 18.31 46.2657 18.17C46.1457 18.03 45.9657 17.96 45.7257 17.96C45.2657 17.96 44.8357 18.17 44.4357 18.59C44.0357 18.99 43.7157 19.54 43.4757 20.24C43.2357 20.94 43.1157 21.71 43.1157 22.55C43.1157 24.87 44.1257 26.03 46.1457 26.03C46.9657 26.03 47.8457 25.76 48.7857 25.22C49.7457 24.66 50.6857 23.83 51.6057 22.73C51.8457 22.45 52.1157 22.31 52.4157 22.31C52.6757 22.31 52.8757 22.43 53.0157 22.67C53.1757 22.91 53.2557 23.24 53.2557 23.66C53.2557 24.42 53.0657 25.04 52.6857 25.52C51.7457 26.68 50.6157 27.58 49.2957 28.22C47.9957 28.84 46.7357 29.15 45.5157 29.15ZM68.1706 22.31C68.4306 22.31 68.6306 22.43 68.7706 22.67C68.9306 22.91 69.0106 23.24 69.0106 23.66C69.0106 24.46 68.8206 25.08 68.4406 25.52C67.5406 26.62 66.6306 27.5 65.7106 28.16C64.7906 28.82 63.7006 29.15 62.4406 29.15C60.9006 29.15 59.6606 28.71 58.7206 27.83C57.7806 26.95 57.3106 25.78 57.3106 24.32C57.3106 23.54 57.7106 22.98 58.5106 22.64C59.3906 22.26 60.0206 21.86 60.4006 21.44C60.7806 21 60.9706 20.47 60.9706 19.85C60.9706 19.49 60.8906 19.22 60.7306 19.04C60.5906 18.86 60.4106 18.77 60.1906 18.77C59.6506 18.77 59.0506 19.16 58.3906 19.94C57.7506 20.72 57.1506 21.73 56.5906 22.97C56.0306 24.19 55.5906 25.45 55.2706 26.75C55.0506 27.69 54.7906 28.33 54.4906 28.67C54.2106 28.99 53.7606 29.15 53.1406 29.15C52.5206 29.15 52.0606 28.93 51.7606 28.49C51.4806 28.03 51.2906 27.33 51.1906 26.39C51.0906 25.45 51.0406 24.07 51.0406 22.25C51.0406 19.17 51.3506 15.96 51.9706 12.62C52.6106 9.28 53.5406 6.48 54.7606 4.22C56.0006 1.94 57.4806 0.799998 59.2006 0.799998C60.1206 0.799998 60.8606 1.2 61.4206 2C62.0006 2.78 62.2906 3.8 62.2906 5.06C62.2906 7.08 61.7006 9.18 60.5206 11.36C59.3406 13.52 57.4206 16.05 54.7606 18.95C54.7006 19.99 54.6706 21.06 54.6706 22.16C55.6306 19.66 56.7306 17.85 57.9706 16.73C59.2106 15.59 60.3706 15.02 61.4506 15.02C62.4506 15.02 63.2506 15.36 63.8506 16.04C64.4706 16.72 64.7806 17.56 64.7806 18.56C64.7806 19.66 64.5006 20.67 63.9406 21.59C63.3806 22.51 62.4206 23.33 61.0606 24.05C61.1406 24.59 61.3806 25.03 61.7806 25.37C62.2006 25.69 62.7006 25.85 63.2806 25.85C63.9006 25.85 64.5006 25.61 65.0806 25.13C65.6606 24.65 66.4206 23.85 67.3606 22.73C67.6006 22.45 67.8706 22.31 68.1706 22.31ZM58.5706 3.77C58.2106 3.77 57.8106 4.29 57.3706 5.33C56.9306 6.35 56.5006 7.74 56.0806 9.5C55.6806 11.24 55.3506 13.14 55.0906 15.2C56.3306 13.74 57.3506 12.15 58.1506 10.43C58.9706 8.71 59.3806 7.15 59.3806 5.75C59.3806 5.11 59.3106 4.62 59.1706 4.28C59.0306 3.94 58.8306 3.77 58.5706 3.77ZM70.5223 13.04C69.6823 13.04 69.0523 12.85 68.6323 12.47C68.2123 12.07 68.0023 11.52 68.0023 10.82C68.0023 10.12 68.2723 9.54 68.8123 9.08C69.3723 8.6 70.0623 8.36 70.8823 8.36C71.6223 8.36 72.2223 8.54 72.6823 8.9C73.1423 9.26 73.3723 9.77 73.3723 10.43C73.3723 11.23 73.1123 11.87 72.5923 12.35C72.0723 12.81 71.3823 13.04 70.5223 13.04ZM70.2823 29.15C68.9823 29.15 68.0323 28.69 67.4323 27.77C66.8523 26.85 66.5623 25.63 66.5623 24.11C66.5623 23.21 66.6723 22.06 66.8923 20.66C67.1323 19.24 67.4323 17.92 67.7923 16.7C67.9723 16.06 68.2123 15.62 68.5123 15.38C68.8123 15.14 69.2923 15.02 69.9523 15.02C70.9723 15.02 71.4823 15.36 71.4823 16.04C71.4823 16.54 71.2923 17.7 70.9123 19.52C70.4323 21.72 70.1923 23.21 70.1923 23.99C70.1923 24.59 70.2723 25.05 70.4323 25.37C70.5923 25.69 70.8623 25.85 71.2423 25.85C71.6023 25.85 72.0523 25.6 72.5923 25.1C73.1323 24.6 73.8523 23.81 74.7523 22.73C74.9923 22.45 75.2623 22.31 75.5623 22.31C75.8223 22.31 76.0223 22.43 76.1623 22.67C76.3223 22.91 76.4023 23.24 76.4023 23.66C76.4023 24.46 76.2123 25.08 75.8323 25.52C73.8523 27.94 72.0023 29.15 70.2823 29.15ZM85.6522 20.6C86.2122 20.6 86.4922 21.02 86.4922 21.86C86.4922 23.44 85.2522 24.23 82.7722 24.23C82.2922 24.23 81.6022 24.14 80.7022 23.96C80.9622 25.2 81.1722 26.58 81.3322 28.1C81.5122 29.6 81.6022 30.84 81.6022 31.82C81.6022 33.98 81.2522 35.63 80.5522 36.77C79.8522 37.91 78.9322 38.48 77.7922 38.48C76.3522 38.48 75.3222 37.46 74.7022 35.42C74.1022 33.38 73.8022 30.3 73.8022 26.18C73.8022 22.34 74.2122 18.45 75.0322 14.51C75.8722 10.55 77.0122 7.28 78.4522 4.7C79.9122 2.1 81.5122 0.799998 83.2522 0.799998C84.1922 0.799998 84.9222 1.22 85.4422 2.06C85.9822 2.9 86.2522 4.03 86.2522 5.45C86.2522 10.15 83.4422 15.27 77.8222 20.81C77.6222 22.77 77.5222 24.49 77.5222 25.97C77.5222 28.03 77.5922 30.14 77.7322 32.3C77.8722 34.48 78.1022 35.57 78.4222 35.57C79.0222 35.57 79.3222 34.53 79.3222 32.45C79.3222 30.89 79.2122 29.38 78.9922 27.92C78.7922 26.46 78.5122 24.92 78.1522 23.3C78.1322 23.04 78.2122 22.71 78.3922 22.31C78.5922 21.91 78.8322 21.56 79.1122 21.26C79.3922 20.96 79.6422 20.81 79.8622 20.81C80.2622 20.81 80.7422 20.83 81.3022 20.87C81.4822 20.89 81.6922 20.9 81.9322 20.9C82.7322 20.9 83.6222 20.83 84.6022 20.69C84.7622 20.67 84.9322 20.65 85.1122 20.63C85.2922 20.61 85.4722 20.6 85.6522 20.6ZM82.6222 3.77C82.2622 3.77 81.8122 4.38 81.2722 5.6C80.7522 6.82 80.2322 8.44 79.7122 10.46C79.1922 12.46 78.7422 14.58 78.3622 16.82C79.9622 15 81.1922 13.11 82.0522 11.15C82.9122 9.17 83.3522 7.32 83.3722 5.6C83.3722 4.38 83.1222 3.77 82.6222 3.77ZM94.7291 15.02C95.1891 15.02 95.5091 15.08 95.6891 15.2C95.8691 15.32 95.9591 15.52 95.9591 15.8C95.9591 16.28 95.6991 17.99 95.1791 20.93C94.7191 23.75 94.4491 25.42 94.3691 25.94C93.6291 31.08 92.6091 35.15 91.3091 38.15C90.0091 41.15 88.2791 42.65 86.1191 42.65C85.0991 42.65 84.2691 42.33 83.6291 41.69C82.9891 41.07 82.6691 40.25 82.6691 39.23C82.6691 38.29 82.8791 37.33 83.2991 36.35C83.7391 35.37 84.5391 34.24 85.6991 32.96C86.8791 31.7 88.5391 30.25 90.6791 28.61L90.7691 27.92C90.9091 27.18 91.0691 26.12 91.2491 24.74C90.8491 26.18 90.2891 27.28 89.5691 28.04C88.8491 28.78 88.0891 29.15 87.2891 29.15C86.3891 29.15 85.6491 28.74 85.0691 27.92C84.5091 27.08 84.2291 26.04 84.2291 24.8C84.2291 23.3 84.3291 21.93 84.5291 20.69C84.7291 19.43 85.0591 18.1 85.5191 16.7C85.7191 16.1 85.9991 15.67 86.3591 15.41C86.7191 15.15 87.2891 15.02 88.0691 15.02C88.5091 15.02 88.8091 15.09 88.9691 15.23C89.1491 15.37 89.2391 15.58 89.2391 15.86C89.2391 16.02 89.1291 16.56 88.9091 17.48C88.7091 18.22 88.5491 18.89 88.4291 19.49C88.2691 20.31 88.1291 21.1 88.0091 21.86C87.8891 22.6 87.8291 23.21 87.8291 23.69C87.8291 24.45 88.0391 24.83 88.4591 24.83C88.7591 24.83 89.1291 24.53 89.5691 23.93C90.0291 23.33 90.5091 22.42 91.0091 21.2C91.5291 19.98 92.0291 18.48 92.5091 16.7C92.6691 16.1 92.9091 15.67 93.2291 15.41C93.5691 15.15 94.0691 15.02 94.7291 15.02ZM86.4491 39.74C86.9491 39.74 87.5091 39.16 88.1291 38C88.7491 36.84 89.3691 34.91 89.9891 32.21C88.4491 33.51 87.3291 34.69 86.6291 35.75C85.9491 36.83 85.6091 37.77 85.6091 38.57C85.6091 38.91 85.6691 39.19 85.7891 39.41C85.9291 39.63 86.1491 39.74 86.4491 39.74Z" fill="#294199"/>
</svg>
