<svg width="105" height="43" viewBox="0 0 105 43" fill="none" xmlns="http://www.w3.org/2000/svg">
<path d="M8.81 29.24C6.15 29.24 4.02 28.74 2.42 27.74C0.82 26.72 0.0200001 25.17 0.0200001 23.09C0.0200001 21.99 0.21 21.15 0.59 20.57C0.97 19.99 1.53 19.7 2.27 19.7C2.81 19.7 3.25 19.84 3.59 20.12C3.93 20.4 4.1 20.76 4.1 21.2C4.1 21.6 4.07 21.95 4.01 22.25C4.01 22.33 3.99 22.47 3.95 22.67C3.93 22.87 3.92 23.08 3.92 23.3C3.92 24.2 4.37 24.87 5.27 25.31C6.19 25.75 7.47 25.97 9.11 25.97C10.81 25.97 12.14 25.67 13.1 25.07C14.06 24.45 14.54 23.59 14.54 22.49C14.54 21.81 14.32 21.23 13.88 20.75C13.44 20.25 12.89 19.84 12.23 19.52C11.57 19.18 10.64 18.77 9.44 18.29C7.9 17.69 6.64 17.12 5.66 16.58C4.7 16.04 3.87 15.31 3.17 14.39C2.49 13.45 2.15 12.29 2.15 10.91C2.15 9.47 2.53 8.19 3.29 7.07C4.07 5.95 5.18 5.08 6.62 4.46C8.08 3.84 9.79 3.53 11.75 3.53C13.21 3.53 14.55 3.75 15.77 4.19C16.99 4.61 17.96 5.26 18.68 6.14C19.42 7.02 19.79 8.1 19.79 9.38C19.79 10.64 19.6 11.59 19.22 12.23C18.84 12.87 18.28 13.19 17.54 13.19C17.02 13.19 16.58 13.03 16.22 12.71C15.88 12.39 15.71 12.01 15.71 11.57C15.71 11.19 15.74 10.84 15.8 10.52C15.86 9.92 15.89 9.54 15.89 9.38C15.89 8.54 15.48 7.9 14.66 7.46C13.84 7.02 12.82 6.8 11.6 6.8C9.88 6.8 8.56 7.12 7.64 7.76C6.74 8.38 6.29 9.26 6.29 10.4C6.29 11.16 6.52 11.81 6.98 12.35C7.46 12.89 8.05 13.34 8.75 13.7C9.45 14.06 10.43 14.49 11.69 14.99C13.21 15.61 14.43 16.17 15.35 16.67C16.27 17.17 17.05 17.85 17.69 18.71C18.35 19.57 18.68 20.63 18.68 21.89C18.68 24.25 17.78 26.07 15.98 27.35C14.2 28.61 11.81 29.24 8.81 29.24ZM25.0243 13.04C24.1843 13.04 23.5543 12.85 23.1343 12.47C22.7143 12.07 22.5043 11.52 22.5043 10.82C22.5043 10.12 22.7743 9.54 23.3143 9.08C23.8743 8.6 24.5643 8.36 25.3843 8.36C26.1243 8.36 26.7243 8.54 27.1843 8.9C27.6443 9.26 27.8743 9.77 27.8743 10.43C27.8743 11.23 27.6143 11.87 27.0943 12.35C26.5743 12.81 25.8843 13.04 25.0243 13.04ZM24.7843 29.15C23.4843 29.15 22.5343 28.69 21.9343 27.77C21.3543 26.85 21.0643 25.63 21.0643 24.11C21.0643 23.21 21.1743 22.06 21.3943 20.66C21.6343 19.24 21.9343 17.92 22.2943 16.7C22.4743 16.06 22.7143 15.62 23.0143 15.38C23.3143 15.14 23.7943 15.02 24.4543 15.02C25.4743 15.02 25.9843 15.36 25.9843 16.04C25.9843 16.54 25.7943 17.7 25.4143 19.52C24.9343 21.72 24.6943 23.21 24.6943 23.99C24.6943 24.59 24.7743 25.05 24.9343 25.37C25.0943 25.69 25.3643 25.85 25.7443 25.85C26.1043 25.85 26.5543 25.6 27.0943 25.1C27.6343 24.6 28.3543 23.81 29.2543 22.73C29.4943 22.45 29.7643 22.31 30.0643 22.31C30.3243 22.31 30.5243 22.43 30.6643 22.67C30.8243 22.91 30.9043 23.24 30.9043 23.66C30.9043 24.46 30.7143 25.08 30.3343 25.52C28.3543 27.94 26.5043 29.15 24.7843 29.15ZM30.6071 29.15C29.8471 29.15 29.3071 28.75 28.9871 27.95C28.6871 27.15 28.5371 25.87 28.5371 24.11C28.5371 21.51 28.9071 19.04 29.6471 16.7C29.8271 16.12 30.1171 15.7 30.5171 15.44C30.9371 15.16 31.5171 15.02 32.2571 15.02C32.6571 15.02 32.9371 15.07 33.0971 15.17C33.2571 15.27 33.3371 15.46 33.3371 15.74C33.3371 16.06 33.1871 16.78 32.8871 17.9C32.6871 18.7 32.5271 19.4 32.4071 20C32.2871 20.58 32.1871 21.31 32.1071 22.19C32.6471 20.63 33.2871 19.31 34.0271 18.23C34.7871 17.15 35.5571 16.35 36.3371 15.83C37.1371 15.29 37.8871 15.02 38.5871 15.02C39.2871 15.02 39.7771 15.18 40.0571 15.5C40.3571 15.82 40.5071 16.31 40.5071 16.97C40.5071 17.61 40.3171 18.77 39.9371 20.45C39.7771 21.17 39.6671 21.71 39.6071 22.07C40.6071 19.61 41.7171 17.82 42.9371 16.7C44.1571 15.58 45.2971 15.02 46.3571 15.02C47.6571 15.02 48.3071 15.67 48.3071 16.97C48.3071 17.75 48.0871 19.16 47.6471 21.2C47.2671 22.94 47.0771 24.09 47.0771 24.65C47.0771 25.45 47.3671 25.85 47.9471 25.85C48.3471 25.85 48.8171 25.61 49.3571 25.13C49.9171 24.63 50.6571 23.83 51.5771 22.73C51.8171 22.45 52.0871 22.31 52.3871 22.31C52.6471 22.31 52.8471 22.43 52.9871 22.67C53.1471 22.91 53.2271 23.24 53.2271 23.66C53.2271 24.46 53.0371 25.08 52.6571 25.52C51.7971 26.58 50.8671 27.45 49.8671 28.13C48.8871 28.81 47.7671 29.15 46.5071 29.15C45.4871 29.15 44.7171 28.86 44.1971 28.28C43.6771 27.68 43.4171 26.82 43.4171 25.7C43.4171 25.14 43.5571 24.14 43.8371 22.7C44.0971 21.44 44.2271 20.57 44.2271 20.09C44.2271 19.77 44.1171 19.61 43.8971 19.61C43.6371 19.61 43.2671 19.95 42.7871 20.63C42.3071 21.29 41.8271 22.17 41.3471 23.27C40.8671 24.37 40.4771 25.53 40.1771 26.75C39.9571 27.71 39.6971 28.35 39.3971 28.67C39.1171 28.99 38.6571 29.15 38.0171 29.15C37.3571 29.15 36.8571 28.84 36.5171 28.22C36.1971 27.58 36.0371 26.81 36.0371 25.91C36.0371 25.15 36.1371 24.05 36.3371 22.61C36.4971 21.33 36.5771 20.49 36.5771 20.09C36.5771 19.77 36.4671 19.61 36.2471 19.61C35.9471 19.61 35.5671 19.97 35.1071 20.69C34.6471 21.41 34.1971 22.33 33.7571 23.45C33.3371 24.57 32.9971 25.67 32.7371 26.75C32.5171 27.69 32.2571 28.33 31.9571 28.67C31.6771 28.99 31.2271 29.15 30.6071 29.15ZM66.8213 22.31C67.0813 22.31 67.2813 22.43 67.4213 22.67C67.5813 22.91 67.6613 23.24 67.6613 23.66C67.6613 24.46 67.4713 25.08 67.0913 25.52C66.2313 26.58 65.3013 27.45 64.3013 28.13C63.3213 28.81 62.2013 29.15 60.9413 29.15C59.8813 29.15 59.0213 28.77 58.3613 28.01C57.2213 28.75 56.0313 29.13 54.7913 29.15C54.5313 33.01 53.9413 36.23 53.0213 38.81C52.1013 41.41 50.7513 42.71 48.9713 42.71C47.8913 42.71 47.0913 42.32 46.5713 41.54C46.0513 40.76 45.7913 39.68 45.7913 38.3C45.7913 36.34 46.2413 34.05 47.1413 31.43C48.0413 28.83 49.4313 25.96 51.3113 22.82C51.3113 19.9 51.2913 17.87 51.2513 16.73C51.2313 16.15 51.4613 15.69 51.9413 15.35C52.4213 15.01 53.0213 14.84 53.7413 14.84C54.1613 14.84 54.4613 14.93 54.6413 15.11C54.8413 15.27 54.9513 15.6 54.9713 16.1C54.9713 16.6 54.9813 16.97 55.0013 17.21C55.6413 16.41 56.2713 15.84 56.8913 15.5C57.5113 15.14 58.1713 14.96 58.8713 14.96C59.9913 14.96 60.9013 15.41 61.6013 16.31C62.3213 17.21 62.6813 18.39 62.6813 19.85C62.6813 20.91 62.5113 21.94 62.1713 22.94C61.8313 23.94 61.3613 24.85 60.7613 25.67C61.1813 25.79 61.5313 25.85 61.8113 25.85C62.4713 25.85 63.1013 25.61 63.7013 25.13C64.3013 24.65 65.0713 23.85 66.0113 22.73C66.2513 22.45 66.5213 22.31 66.8213 22.31ZM54.9413 26.27C55.6613 26.11 56.3213 25.72 56.9213 25.1C57.5413 24.46 58.0313 23.68 58.3913 22.76C58.7513 21.82 58.9313 20.84 58.9313 19.82C58.9313 19.22 58.8113 18.77 58.5713 18.47C58.3313 18.15 58.0113 17.99 57.6113 17.99C56.8913 17.99 56.0213 18.75 55.0013 20.27C54.9813 21.15 54.9713 22.44 54.9713 24.14C54.9713 25.06 54.9613 25.77 54.9413 26.27ZM49.2113 39.77C49.7513 39.77 50.2013 38.59 50.5613 36.23C50.9213 33.89 51.1513 30.97 51.2513 27.47C50.3913 29.47 49.7113 31.38 49.2113 33.2C48.7113 35.02 48.4613 36.55 48.4613 37.79C48.4613 38.43 48.5413 38.92 48.7013 39.26C48.8413 39.6 49.0113 39.77 49.2113 39.77ZM76.6147 22.31C76.8747 22.31 77.0747 22.43 77.2147 22.67C77.3747 22.91 77.4547 23.24 77.4547 23.66C77.4547 24.46 77.2647 25.08 76.8847 25.52C76.0247 26.58 75.0847 27.45 74.0647 28.13C73.0647 28.81 71.9247 29.15 70.6447 29.15C68.8847 29.15 67.5747 28.35 66.7147 26.75C65.8747 25.15 65.4547 23.08 65.4547 20.54C65.4547 18.1 65.7647 15.32 66.3847 12.2C67.0247 9.08 67.9547 6.4 69.1747 4.16C70.4147 1.92 71.8847 0.799998 73.5847 0.799998C74.5447 0.799998 75.2947 1.25 75.8347 2.15C76.3947 3.03 76.6747 4.3 76.6747 5.96C76.6747 8.34 76.0147 11.1 74.6947 14.24C73.3747 17.38 71.5847 20.49 69.3247 23.57C69.4647 24.39 69.6947 24.98 70.0147 25.34C70.3347 25.68 70.7547 25.85 71.2747 25.85C72.0947 25.85 72.8147 25.62 73.4347 25.16C74.0547 24.68 74.8447 23.87 75.8047 22.73C76.0447 22.45 76.3147 22.31 76.6147 22.31ZM72.9247 3.77C72.4647 3.77 71.9447 4.6 71.3647 6.26C70.7847 7.92 70.2747 9.98 69.8347 12.44C69.3947 14.9 69.1547 17.26 69.1147 19.52C70.5347 17.18 71.6647 14.84 72.5047 12.5C73.3447 10.14 73.7647 7.99 73.7647 6.05C73.7647 4.53 73.4847 3.77 72.9247 3.77ZM78.9598 13.04C78.1198 13.04 77.4898 12.85 77.0698 12.47C76.6498 12.07 76.4398 11.52 76.4398 10.82C76.4398 10.12 76.7098 9.54 77.2498 9.08C77.8098 8.6 78.4998 8.36 79.3198 8.36C80.0598 8.36 80.6598 8.54 81.1198 8.9C81.5798 9.26 81.8098 9.77 81.8098 10.43C81.8098 11.23 81.5498 11.87 81.0298 12.35C80.5098 12.81 79.8198 13.04 78.9598 13.04ZM78.7198 29.15C77.4198 29.15 76.4698 28.69 75.8698 27.77C75.2898 26.85 74.9998 25.63 74.9998 24.11C74.9998 23.21 75.1098 22.06 75.3298 20.66C75.5698 19.24 75.8698 17.92 76.2298 16.7C76.4098 16.06 76.6498 15.62 76.9498 15.38C77.2498 15.14 77.7298 15.02 78.3898 15.02C79.4098 15.02 79.9198 15.36 79.9198 16.04C79.9198 16.54 79.7298 17.7 79.3498 19.52C78.8698 21.72 78.6298 23.21 78.6298 23.99C78.6298 24.59 78.7098 25.05 78.8698 25.37C79.0298 25.69 79.2998 25.85 79.6798 25.85C80.0398 25.85 80.4898 25.6 81.0298 25.1C81.5698 24.6 82.2898 23.81 83.1898 22.73C83.4298 22.45 83.6998 22.31 83.9998 22.31C84.2598 22.31 84.4598 22.43 84.5998 22.67C84.7598 22.91 84.8398 23.24 84.8398 23.66C84.8398 24.46 84.6498 25.08 84.2698 25.52C82.2898 27.94 80.4398 29.15 78.7198 29.15ZM94.0897 20.6C94.6497 20.6 94.9297 21.02 94.9297 21.86C94.9297 23.44 93.6897 24.23 91.2097 24.23C90.7297 24.23 90.0397 24.14 89.1397 23.96C89.3997 25.2 89.6097 26.58 89.7697 28.1C89.9497 29.6 90.0397 30.84 90.0397 31.82C90.0397 33.98 89.6897 35.63 88.9897 36.77C88.2897 37.91 87.3697 38.48 86.2297 38.48C84.7897 38.48 83.7597 37.46 83.1397 35.42C82.5397 33.38 82.2397 30.3 82.2397 26.18C82.2397 22.34 82.6497 18.45 83.4697 14.51C84.3097 10.55 85.4497 7.28 86.8897 4.7C88.3497 2.1 89.9497 0.799998 91.6897 0.799998C92.6297 0.799998 93.3597 1.22 93.8797 2.06C94.4197 2.9 94.6897 4.03 94.6897 5.45C94.6897 10.15 91.8797 15.27 86.2597 20.81C86.0597 22.77 85.9597 24.49 85.9597 25.97C85.9597 28.03 86.0297 30.14 86.1697 32.3C86.3097 34.48 86.5397 35.57 86.8597 35.57C87.4597 35.57 87.7597 34.53 87.7597 32.45C87.7597 30.89 87.6497 29.38 87.4297 27.92C87.2297 26.46 86.9497 24.92 86.5897 23.3C86.5697 23.04 86.6497 22.71 86.8297 22.31C87.0297 21.91 87.2697 21.56 87.5497 21.26C87.8297 20.96 88.0797 20.81 88.2997 20.81C88.6997 20.81 89.1797 20.83 89.7397 20.87C89.9197 20.89 90.1297 20.9 90.3697 20.9C91.1697 20.9 92.0597 20.83 93.0397 20.69C93.1997 20.67 93.3697 20.65 93.5497 20.63C93.7297 20.61 93.9097 20.6 94.0897 20.6ZM91.0597 3.77C90.6997 3.77 90.2497 4.38 89.7097 5.6C89.1897 6.82 88.6697 8.44 88.1497 10.46C87.6297 12.46 87.1797 14.58 86.7997 16.82C88.3997 15 89.6297 13.11 90.4897 11.15C91.3497 9.17 91.7897 7.32 91.8097 5.6C91.8097 4.38 91.5597 3.77 91.0597 3.77ZM103.167 15.02C103.627 15.02 103.947 15.08 104.127 15.2C104.307 15.32 104.397 15.52 104.397 15.8C104.397 16.28 104.137 17.99 103.617 20.93C103.157 23.75 102.887 25.42 102.807 25.94C102.067 31.08 101.047 35.15 99.7466 38.15C98.4466 41.15 96.7166 42.65 94.5566 42.65C93.5366 42.65 92.7066 42.33 92.0666 41.69C91.4266 41.07 91.1066 40.25 91.1066 39.23C91.1066 38.29 91.3166 37.33 91.7366 36.35C92.1766 35.37 92.9766 34.24 94.1366 32.96C95.3166 31.7 96.9766 30.25 99.1166 28.61L99.2066 27.92C99.3466 27.18 99.5066 26.12 99.6866 24.74C99.2866 26.18 98.7266 27.28 98.0066 28.04C97.2866 28.78 96.5266 29.15 95.7266 29.15C94.8266 29.15 94.0866 28.74 93.5066 27.92C92.9466 27.08 92.6666 26.04 92.6666 24.8C92.6666 23.3 92.7666 21.93 92.9666 20.69C93.1666 19.43 93.4966 18.1 93.9566 16.7C94.1566 16.1 94.4366 15.67 94.7966 15.41C95.1566 15.15 95.7266 15.02 96.5066 15.02C96.9466 15.02 97.2466 15.09 97.4066 15.23C97.5866 15.37 97.6766 15.58 97.6766 15.86C97.6766 16.02 97.5666 16.56 97.3466 17.48C97.1466 18.22 96.9866 18.89 96.8666 19.49C96.7066 20.31 96.5666 21.1 96.4466 21.86C96.3266 22.6 96.2666 23.21 96.2666 23.69C96.2666 24.45 96.4766 24.83 96.8966 24.83C97.1966 24.83 97.5666 24.53 98.0066 23.93C98.4666 23.33 98.9466 22.42 99.4466 21.2C99.9666 19.98 100.467 18.48 100.947 16.7C101.107 16.1 101.347 15.67 101.667 15.41C102.007 15.15 102.507 15.02 103.167 15.02ZM94.8866 39.74C95.3866 39.74 95.9466 39.16 96.5666 38C97.1866 36.84 97.8066 34.91 98.4266 32.21C96.8866 33.51 95.7666 34.69 95.0666 35.75C94.3866 36.83 94.0466 37.77 94.0466 38.57C94.0466 38.91 94.1066 39.19 94.2266 39.41C94.3666 39.63 94.5866 39.74 94.8866 39.74Z" fill="#294199"/>
</svg>